<?xml version="1.0" encoding="utf-8"?>
<!-- Generator: Adobe Illustrator 24.2.3, SVG Export Plug-In . SVG Version: 6.00 Build 0)  -->
<svg version="1.1" id="Capa_1" xmlns="http://www.w3.org/2000/svg" xmlns:xlink="http://www.w3.org/1999/xlink" x="0px" y="0px"
	 viewBox="0 0 61 54" style="enable-background:new 0 0 61 54;" xml:space="preserve">
<path id="path" d="M18.61,6.49c3.32-3.44,7.93-5.32,12.71-5.19c9.78-0.1,17.79,7.75,17.89,17.53c0,0.12,0,0.24,0,0.37
	c-0.03,2.95-0.65,5.85-1.82,8.56c-1.3,3.15-2.86,6.19-4.67,9.08c-1.82,2.85-3.63,5.45-5.19,8.04c-1.3,2.11-2.78,4.1-4.41,5.97
	l-2.08,2.08c-0.52-0.52-1.04-1.3-2.08-2.33c-1.59-1.81-3.06-3.71-4.41-5.71c-2.08-2.85-3.89-5.45-5.45-8.04
	c-1.68-2.83-3.15-5.78-4.41-8.82c-1.24-2.78-1.95-5.77-2.08-8.82C13.42,14.27,15.23,9.86,18.61,6.49z M26.91,23.87
	c2.58,2.81,6.95,3,9.76,0.43c2.81-2.58,3-6.95,0.43-9.76c-2.58-2.81-6.95-3-9.76-0.43c-1.43,1.31-2.24,3.16-2.24,5.09
	C25.02,20.94,25.68,22.63,26.91,23.87L26.91,23.87z"/>
</svg>
